<?xml version="1.0" standalone="no"?>
<!DOCTYPE svg PUBLIC "-//W3C//DTD SVG 20010904//EN"
 "http://www.w3.org/TR/2001/REC-SVG-20010904/DTD/svg10.dtd">
<svg version="1.0" xmlns="http://www.w3.org/2000/svg"
 width="50.000000pt" height="50.000000pt" viewBox="0 0 50.000000 50.000000"
 preserveAspectRatio="xMidYMid meet">

<g transform="translate(0.000000,50.000000) scale(0.100000,-0.100000)"
fill="#c8023f" stroke="none">
<path d="M276 448 c-31 -44 -14 -103 40 -139 46 -30 106 -20 133 23 17 27 6
35 -19 13 -27 -24 -82 -13 -111 23 -16 20 -20 36 -16 65 6 42 -4 48 -27 15z"/>
<path d="M181 424 c-59 -74 -22 -192 73 -235 53 -24 90 -24 141 1 38 18 84 74
71 87 -3 3 -19 -6 -36 -21 -86 -72 -238 7 -227 119 2 22 7 48 11 58 12 26 -10
21 -33 -9z"/>
<path d="M63 378 c-24 -35 -28 -52 -28 -107 1 -44 7 -78 19 -101 73 -139 245
-182 352 -88 61 53 74 105 14 55 -89 -75 -248 -29 -306 88 -21 43 -25 65 -22
107 2 29 8 61 12 71 16 34 -14 17 -41 -25z"/>
</g>
</svg>
