<?xml version="1.0" standalone="no"?>
<!DOCTYPE svg PUBLIC "-//W3C//DTD SVG 20010904//EN"
 "http://www.w3.org/TR/2001/REC-SVG-20010904/DTD/svg10.dtd">
<svg version="1.0" xmlns="http://www.w3.org/2000/svg"
 width="48.000000pt" height="48.000000pt" viewBox="0 0 48.000000 48.000000"
 preserveAspectRatio="xMidYMid meet">

<g transform="translate(0.000000,48.000000) scale(0.100000,-0.100000)"
fill="#c8023f" stroke="none">
<path d="M121 379 c-60 -30 -101 -74 -101 -108 0 -7 18 -30 41 -51 l41 -37
-32 -23 c-24 -17 -30 -28 -28 -49 7 -58 88 -23 88 38 0 17 4 33 10 36 6 3 10
-4 10 -17 0 -13 5 -30 10 -38 9 -13 12 -12 25 4 8 11 15 14 15 8 0 -27 28 -9
45 28 10 22 21 40 25 40 12 0 18 -50 7 -57 -6 -4 -7 -1 -2 8 8 12 6 12 -8 0
-9 -7 -14 -18 -11 -23 9 -14 49 18 47 38 -1 10 5 27 12 38 13 18 15 18 21 2 4
-10 2 -22 -5 -29 -13 -13 -15 -37 -2 -37 14 0 42 30 36 40 -8 12 24 21 52 14
13 -4 28 -16 33 -28 7 -17 9 -17 9 -4 1 24 -42 50 -76 46 -24 -3 -28 1 -31 25
-4 33 -19 35 -32 3 -13 -35 -30 -42 -30 -12 0 40 -16 31 -39 -24 -21 -49 -38
-69 -26 -30 8 26 -3 60 -19 60 -7 0 -27 -11 -45 -25 l-34 -24 -33 25 c-63 48
-54 86 29 134 53 31 129 41 142 19 23 -36 -32 -90 -95 -93 -45 -1 -43 -16 2
-16 46 0 99 29 113 63 16 38 9 62 -21 76 -40 18 -77 13 -143 -20z m77 -189
c-5 -17 -14 -33 -19 -36 -12 -7 -11 23 1 47 17 30 30 22 18 -11z m144 -22 c-7
-7 -12 -8 -12 -2 0 14 12 26 19 19 2 -3 -1 -11 -7 -17z m-222 -13 c0 -20 -38
-57 -50 -50 -15 10 -12 22 12 45 26 24 38 26 38 5z"/>
</g>
</svg>
