<?xml version="1.0" standalone="no"?>
<!DOCTYPE svg PUBLIC "-//W3C//DTD SVG 20010904//EN"
 "http://www.w3.org/TR/2001/REC-SVG-20010904/DTD/svg10.dtd">
<svg version="1.0" xmlns="http://www.w3.org/2000/svg"
 width="40.000000pt" height="40.000000pt" viewBox="0 0 40.000000 40.000000"
 preserveAspectRatio="xMidYMid meet">

<g transform="translate(0.000000,40.000000) scale(0.100000,-0.100000)"
fill="#C8023F" stroke="none">
<path d="M12 328 c-17 -17 -17 -239 0 -256 17 -17 359 -17 376 0 17 17 17 239
0 256 -17 17 -359 17 -376 0z m338 -15 c0 -14 -135 -143 -149 -143 -16 0 -151
128 -151 142 0 5 68 8 150 8 83 0 150 -3 150 -7z m-270 -68 l44 -45 -44 -45
c-24 -25 -48 -45 -52 -45 -4 0 -8 41 -8 90 0 50 4 90 8 90 4 0 28 -20 52 -45z
m300 -45 c0 -49 -4 -90 -8 -90 -4 0 -28 20 -52 45 l-44 45 44 45 c24 25 48 45
52 45 4 0 8 -40 8 -90z m-206 -40 c25 -13 31 -12 59 3 l30 18 44 -43 c23 -23
43 -46 43 -50 0 -4 -67 -8 -150 -8 -82 0 -150 3 -150 7 0 10 83 94 90 90 3 -1
18 -9 34 -17z"/>
</g>
</svg>
