<?xml version="1.0" standalone="no"?>
<!DOCTYPE svg PUBLIC "-//W3C//DTD SVG 20010904//EN"
 "http://www.w3.org/TR/2001/REC-SVG-20010904/DTD/svg10.dtd">
<svg version="1.0" xmlns="http://www.w3.org/2000/svg"
 width="64.000000pt" height="64.000000pt" viewBox="0 0 64.000000 64.000000"
 preserveAspectRatio="xMidYMid meet">

<g transform="translate(0.000000,64.000000) scale(0.100000,-0.100000)"
fill="#c8023f" stroke="none">
<path d="M194 526 c-10 -17 -15 -43 -13 -81 l3 -57 -41 -18 c-91 -41 -84 -118
15 -159 27 -11 28 -13 24 -75 -4 -58 -2 -64 22 -84 21 -16 33 -19 55 -12 37
10 65 26 80 44 11 13 18 11 55 -15 50 -36 102 -41 122 -14 8 11 14 45 14 82 0
60 1 64 28 74 44 17 72 49 72 84 0 34 -16 53 -67 79 -32 16 -33 18 -33 80 0
99 -44 122 -131 68 l-44 -28 -39 28 c-50 36 -99 38 -122 4z m320 -31 c4 -15 4
-42 0 -62 -7 -35 -7 -35 -48 -29 -29 5 -49 16 -68 39 -31 37 -25 50 36 78 47
21 70 13 80 -26z m-205 7 l34 -28 -29 -33 c-21 -23 -40 -34 -70 -38 -41 -5
-42 -5 -46 30 -2 19 0 48 4 66 7 27 13 31 41 31 21 0 45 -10 66 -28z m81 -84
c0 -4 -16 -8 -35 -8 -39 0 -42 5 -18 32 15 17 17 17 35 2 10 -10 18 -21 18
-26z m54 -78 l26 -48 -28 -49 c-25 -43 -33 -48 -67 -51 -61 -5 -79 4 -107 55
l-27 48 27 47 c28 50 46 57 118 50 26 -3 37 -13 58 -52z m-174 45 c0 -2 -9
-19 -20 -37 l-19 -32 -11 28 c-5 15 -10 29 -10 31 0 3 13 6 53 14 4 0 7 -1 7
-4z m228 -9 c1 -2 -2 -16 -8 -31 -12 -32 -11 -32 -35 14 l-17 34 29 -7 c15 -4
29 -9 31 -10z m-290 -43 c12 -39 -1 -113 -20 -113 -19 0 -67 31 -82 51 -19 28
-7 52 37 79 44 27 52 25 65 -17z m350 23 c71 -36 77 -79 16 -116 -42 -27 -55
-23 -72 22 -10 29 -10 41 3 72 17 41 17 41 53 22z m-288 -151 c0 -8 -34 -5
-48 4 -10 6 -11 13 -1 34 l12 27 19 -30 c10 -17 18 -33 18 -35z m223 33 c7
-24 -7 -38 -36 -38 -16 0 -16 2 -2 30 18 36 31 38 38 8z m-181 -91 l28 -32
-30 -27 c-37 -34 -77 -45 -95 -27 -14 15 -19 42 -17 97 l2 34 43 -7 c30 -5 50
-16 69 -38z m203 5 c7 -41 -7 -90 -28 -98 -18 -7 -67 13 -94 38 l-22 21 26 31
c23 28 52 42 95 45 11 1 18 -10 23 -37z m-125 20 c0 -3 -7 -14 -17 -24 -15
-17 -17 -17 -35 -2 -26 25 -22 32 17 32 19 0 35 -3 35 -6z"/>
<path d="M316 334 c-19 -18 -21 -65 -4 -82 16 -16 70 -16 86 0 20 20 15 76 -7
88 -28 14 -57 12 -75 -6z"/>
</g>
</svg>
