<?xml version="1.0" encoding="UTF-8"?>
<svg xmlns="http://www.w3.org/2000/svg" xmlns:xlink="http://www.w3.org/1999/xlink" width="40px" height="40px" viewBox="0 0 40 40" version="1.1">
<g id="surface1">
<path style=" stroke:none;fill-rule:nonzero;fill:#c8023f;fill-opacity:1;" d="M 0 20 L 0 40 L 40 40 L 40 0 L 0 0 Z M 24.375 3.90625 C 24.765625 4.296875 24.765625 4.453125 24.375 4.84375 C 24.0625 5.15625 23.859375 5.15625 14.53125 5.15625 C 5.203125 5.15625 5 5.15625 4.6875 4.84375 C 4.515625 4.671875 4.375 4.453125 4.375 4.375 C 4.375 4.28125 4.515625 4.078125 4.6875 3.90625 C 5 3.59375 5.203125 3.59375 14.53125 3.59375 C 23.859375 3.59375 24.0625 3.59375 24.375 3.90625 Z M 29.09375 6.984375 C 29.4375 7.296875 29.453125 7.625 29.109375 8 C 28.875 8.265625 28.40625 8.28125 20.8125 8.28125 C 13.53125 8.28125 12.734375 8.25 12.46875 8.015625 C 12.125 7.703125 12.109375 7.375 12.453125 7 C 12.6875 6.734375 13.15625 6.71875 20.75 6.71875 C 28.03125 6.71875 28.828125 6.75 29.09375 6.984375 Z M 16.5625 10.15625 C 16.734375 10.328125 16.875 10.53125 16.875 10.625 C 16.875 10.703125 16.734375 10.921875 16.5625 11.09375 C 16.265625 11.390625 16.046875 11.40625 10.625 11.40625 C 5.203125 11.40625 4.984375 11.390625 4.6875 11.09375 C 4.515625 10.921875 4.375 10.703125 4.375 10.625 C 4.375 10.53125 4.515625 10.328125 4.6875 10.15625 C 4.984375 9.859375 5.203125 9.84375 10.625 9.84375 C 16.046875 9.84375 16.265625 9.859375 16.5625 10.15625 Z M 25.9375 10.15625 C 26.109375 10.328125 26.25 10.53125 26.25 10.625 C 26.25 10.703125 26.109375 10.921875 25.9375 11.09375 C 25.640625 11.390625 25.421875 11.40625 22.34375 11.40625 C 19.265625 11.40625 19.046875 11.390625 18.75 11.09375 C 18.578125 10.921875 18.4375 10.703125 18.4375 10.625 C 18.4375 10.53125 18.578125 10.328125 18.75 10.15625 C 19.046875 9.859375 19.265625 9.84375 22.34375 9.84375 C 25.421875 9.84375 25.640625 9.859375 25.9375 10.15625 Z M 30.625 10.15625 C 30.796875 10.328125 30.9375 10.53125 30.9375 10.625 C 30.9375 10.703125 30.796875 10.921875 30.625 11.09375 C 30.375 11.34375 30.109375 11.40625 29.375 11.40625 C 28.640625 11.40625 28.375 11.34375 28.125 11.09375 C 27.953125 10.921875 27.8125 10.703125 27.8125 10.625 C 27.8125 10.53125 27.953125 10.328125 28.125 10.15625 C 28.375 9.90625 28.640625 9.84375 29.375 9.84375 C 30.109375 9.84375 30.375 9.90625 30.625 10.15625 Z M 11.90625 13.234375 C 12.25 13.546875 12.265625 13.875 11.921875 14.25 C 11.6875 14.5 11.359375 14.53125 8.3125 14.53125 C 5.40625 14.53125 4.90625 14.5 4.65625 14.265625 C 4.3125 13.953125 4.296875 13.625 4.640625 13.25 C 4.875 13 5.203125 12.96875 8.25 12.96875 C 11.15625 12.96875 11.65625 13 11.90625 13.234375 Z M 11.875 16.40625 C 12.046875 16.578125 12.1875 16.78125 12.1875 16.875 C 12.1875 16.953125 12.046875 17.171875 11.875 17.34375 C 11.578125 17.640625 11.359375 17.65625 8.28125 17.65625 C 5.203125 17.65625 4.984375 17.640625 4.6875 17.34375 C 4.515625 17.171875 4.375 16.953125 4.375 16.875 C 4.375 16.78125 4.515625 16.578125 4.6875 16.40625 C 4.984375 16.109375 5.203125 16.09375 8.28125 16.09375 C 11.359375 16.09375 11.578125 16.109375 11.875 16.40625 Z M 32.21875 16.359375 C 32.5625 16.671875 32.578125 17 32.234375 17.375 C 32 17.640625 31.65625 17.65625 27.84375 17.65625 C 24.203125 17.65625 23.65625 17.625 23.40625 17.390625 C 23.0625 17.078125 23.046875 16.75 23.390625 16.375 C 23.625 16.109375 23.96875 16.09375 27.78125 16.09375 C 31.421875 16.09375 31.96875 16.125 32.21875 16.359375 Z M 15.03125 19.484375 C 15.375 19.796875 15.390625 20.125 15.046875 20.5 C 14.828125 20.75 14.515625 20.78125 12.21875 20.78125 C 10.03125 20.78125 9.59375 20.734375 9.34375 20.515625 C 9 20.203125 8.984375 19.875 9.328125 19.5 C 9.546875 19.25 9.859375 19.21875 12.15625 19.21875 C 14.34375 19.21875 14.78125 19.265625 15.03125 19.484375 Z M 30.625 19.53125 C 30.796875 19.703125 30.9375 19.90625 30.9375 20 C 30.9375 20.078125 30.796875 20.296875 30.625 20.46875 C 30.328125 20.765625 30.109375 20.78125 23.90625 20.78125 C 17.703125 20.78125 17.484375 20.765625 17.1875 20.46875 C 17.015625 20.296875 16.875 20.078125 16.875 20 C 16.875 19.90625 17.015625 19.703125 17.1875 19.53125 C 17.484375 19.234375 17.703125 19.21875 23.90625 19.21875 C 30.109375 19.21875 30.328125 19.234375 30.625 19.53125 Z M 11.875 22.65625 C 12.046875 22.828125 12.1875 23.046875 12.1875 23.125 C 12.1875 23.203125 12.046875 23.421875 11.875 23.59375 C 11.578125 23.890625 11.359375 23.90625 8.28125 23.90625 C 5.203125 23.90625 4.984375 23.890625 4.6875 23.59375 C 4.515625 23.421875 4.375 23.203125 4.375 23.125 C 4.375 23.03125 4.515625 22.828125 4.6875 22.65625 C 4.984375 22.359375 5.203125 22.34375 8.28125 22.34375 C 11.359375 22.34375 11.578125 22.359375 11.875 22.65625 Z M 29.0625 22.65625 C 29.234375 22.828125 29.375 23.03125 29.375 23.125 C 29.375 23.203125 29.234375 23.421875 29.0625 23.59375 C 28.78125 23.875 28.546875 23.90625 26.25 23.90625 C 23.953125 23.90625 23.71875 23.875 23.4375 23.59375 C 23.265625 23.421875 23.125 23.203125 23.125 23.125 C 23.125 23.03125 23.265625 22.828125 23.4375 22.65625 C 23.71875 22.375 23.953125 22.34375 26.25 22.34375 C 28.546875 22.34375 28.78125 22.375 29.0625 22.65625 Z M 7.1875 25.78125 C 7.578125 26.171875 7.578125 26.328125 7.1875 26.71875 C 6.9375 26.96875 6.671875 27.03125 5.9375 27.03125 C 5.203125 27.03125 4.9375 26.96875 4.6875 26.71875 C 4.515625 26.546875 4.375 26.328125 4.375 26.25 C 4.375 26.15625 4.515625 25.953125 4.6875 25.78125 C 4.9375 25.53125 5.203125 25.46875 5.9375 25.46875 C 6.671875 25.46875 6.9375 25.53125 7.1875 25.78125 Z M 24.40625 25.734375 C 24.75 26.046875 24.765625 26.375 24.421875 26.75 C 24.1875 27.015625 23.75 27.03125 16.90625 27.03125 C 10.359375 27.03125 9.609375 27 9.34375 26.765625 C 9 26.453125 8.984375 26.125 9.328125 25.75 C 9.5625 25.484375 10 25.46875 16.84375 25.46875 C 23.390625 25.46875 24.140625 25.5 24.40625 25.734375 Z M 15 28.90625 C 15.171875 29.078125 15.3125 29.28125 15.3125 29.375 C 15.3125 29.453125 15.171875 29.671875 15 29.84375 C 14.703125 30.140625 14.484375 30.15625 9.84375 30.15625 C 5.203125 30.15625 4.984375 30.140625 4.6875 29.84375 C 4.515625 29.671875 4.375 29.453125 4.375 29.375 C 4.375 29.28125 4.515625 29.078125 4.6875 28.90625 C 4.984375 28.609375 5.203125 28.59375 9.84375 28.59375 C 14.484375 28.59375 14.703125 28.609375 15 28.90625 Z M 8.75 32.03125 C 8.921875 32.203125 9.0625 32.40625 9.0625 32.5 C 9.0625 32.578125 8.921875 32.796875 8.75 32.96875 C 8.46875 33.25 8.234375 33.28125 6.71875 33.28125 C 5.203125 33.28125 4.96875 33.25 4.6875 32.96875 C 4.515625 32.796875 4.375 32.578125 4.375 32.5 C 4.375 32.40625 4.515625 32.203125 4.6875 32.03125 C 4.96875 31.75 5.203125 31.71875 6.71875 31.71875 C 8.234375 31.71875 8.46875 31.75 8.75 32.03125 Z M 15.03125 31.984375 C 15.375 32.296875 15.390625 32.625 15.046875 33 C 14.828125 33.234375 14.546875 33.28125 13 33.28125 C 11.546875 33.28125 11.140625 33.234375 10.90625 33.015625 C 10.5625 32.703125 10.546875 32.375 10.890625 32 C 11.109375 31.765625 11.390625 31.71875 12.9375 31.71875 C 14.390625 31.71875 14.796875 31.765625 15.03125 31.984375 Z M 15.03125 31.984375 "/>
</g>
</svg>
