<?xml version="1.0" standalone="no"?>
<!DOCTYPE svg PUBLIC "-//W3C//DTD SVG 20010904//EN"
 "http://www.w3.org/TR/2001/REC-SVG-20010904/DTD/svg10.dtd">
<svg version="1.0" xmlns="http://www.w3.org/2000/svg"
 width="48.000000pt" height="48.000000pt" viewBox="0 0 48.000000 48.000000"
 preserveAspectRatio="xMidYMid meet">

<g transform="translate(0.000000,48.000000) scale(0.100000,-0.100000)"
fill="#c8023f" stroke="none">
<path d="M149 412 c-43 -22 -59 -38 -81 -81 -36 -68 -36 -114 0 -182 23 -43
38 -59 82 -82 45 -23 64 -28 103 -24 77 7 77 15 6 116 l-64 90 -3 -50 c-2 -35
-7 -49 -18 -49 -11 0 -14 17 -14 85 0 61 3 85 13 85 6 0 50 -54 96 -120 95
-136 101 -138 145 -48 33 67 33 112 -2 179 -22 43 -38 59 -81 81 -31 16 -69
28 -91 28 -22 0 -60 -12 -91 -28z m171 -159 c0 -70 -1 -75 -15 -57 -20 27 -21
134 0 134 12 0 15 -15 15 -77z"/>
</g>
</svg>
