<?xml version="1.0" standalone="no"?>
<!DOCTYPE svg PUBLIC "-//W3C//DTD SVG 20010904//EN"
 "http://www.w3.org/TR/2001/REC-SVG-20010904/DTD/svg10.dtd">
<svg version="1.0" xmlns="http://www.w3.org/2000/svg"
 width="40.000000pt" height="40.000000pt" viewBox="0 0 40.000000 40.000000"
 preserveAspectRatio="xMidYMid meet">

<g transform="translate(0.000000,40.000000) scale(0.100000,-0.100000)"
fill="#C8023F" stroke="none">
<path d="M30 363 c-27 -30 -31 -42 -27 -70 20 -123 167 -270 289 -289 27 -5
41 -1 66 20 49 42 50 62 6 107 -43 44 -60 48 -96 20 -24 -19 -25 -19 -57 1
-17 11 -43 37 -56 56 -24 35 -24 35 -4 60 10 14 19 32 19 41 0 21 -71 91 -92
91 -9 0 -30 -16 -48 -37z m91 -15 c35 -39 35 -45 8 -74 -18 -19 -19 -26 -9
-46 18 -34 71 -87 104 -105 26 -13 30 -13 50 6 30 28 36 27 76 -14 l34 -35
-29 -30 c-18 -18 -39 -30 -55 -30 -98 0 -279 181 -280 279 0 24 44 81 62 81 5
0 22 -15 39 -32z"/>
</g>
</svg>
