<?xml version="1.0" standalone="no"?>
<!DOCTYPE svg PUBLIC "-//W3C//DTD SVG 20010904//EN"
 "http://www.w3.org/TR/2001/REC-SVG-20010904/DTD/svg10.dtd">
<svg version="1.0" xmlns="http://www.w3.org/2000/svg"
 width="64.000000pt" height="64.000000pt" viewBox="0 0 64.000000 64.000000"
 preserveAspectRatio="xMidYMid meet">

<g transform="translate(0.000000,64.000000) scale(0.100000,-0.100000)"
fill="#c8023f" stroke="none">
<path d="M46 632 c-7 -11 35 -545 43 -553 3 -4 56 -23 118 -43 l112 -37 116
37 c65 21 118 42 120 48 7 23 44 540 39 548 -7 11 -541 11 -548 0z m452 -144
l-3 -33 -135 -3 -136 -3 4 -34 4 -35 130 0 129 0 -5 -52 c-3 -29 -8 -79 -11
-110 l-6 -58 -68 -20 c-83 -25 -78 -25 -161 1 -65 19 -68 22 -74 57 -12 77
-10 82 34 82 37 0 40 -2 40 -29 0 -25 5 -30 43 -40 82 -20 126 6 127 77 0 22
-2 22 -125 22 -144 0 -130 -13 -140 128 l-5 82 180 0 181 0 -3 -32z"/>
</g>
</svg>
