<?xml version="1.0" standalone="no"?>
<!DOCTYPE svg PUBLIC "-//W3C//DTD SVG 20010904//EN"
 "http://www.w3.org/TR/2001/REC-SVG-20010904/DTD/svg10.dtd">
<svg version="1.0" xmlns="http://www.w3.org/2000/svg"
 width="64.000000pt" height="64.000000pt" viewBox="0 0 64.000000 64.000000"
 preserveAspectRatio="xMidYMid meet">

<g transform="translate(0.000000,64.000000) scale(0.100000,-0.100000)"
fill="#c8023f" stroke="none">
<path d="M44 598 c3 -24 15 -153 27 -288 12 -135 22 -245 23 -246 0 0 52 -15
114 -32 l113 -31 112 31 c62 17 113 31 113 32 1 1 11 111 23 246 12 135 24
264 27 288 l5 42 -281 0 -281 0 5 -42z m452 -105 c-2 -16 -10 -96 -17 -180
l-12 -151 -73 -20 -74 -20 -75 20 -75 20 0 49 c0 27 0 52 0 57 0 4 15 7 32 7
28 0 33 -4 38 -29 6 -36 43 -50 108 -41 46 7 47 8 57 68 l6 37 -126 0 c-117 0
-125 1 -125 19 0 11 -3 26 -6 35 -5 14 5 16 77 16 46 0 108 3 137 6 49 6 52 8
52 35 l0 29 -134 0 c-142 0 -146 1 -146 51 0 18 9 19 181 19 l181 0 -6 -27z"/>
</g>
</svg>
