<?xml version="1.0" standalone="no"?>
<!DOCTYPE svg PUBLIC "-//W3C//DTD SVG 20010904//EN"
 "http://www.w3.org/TR/2001/REC-SVG-20010904/DTD/svg10.dtd">
<svg version="1.0" xmlns="http://www.w3.org/2000/svg"
 width="64.000000pt" height="64.000000pt" viewBox="0 0 64.000000 64.000000"
 preserveAspectRatio="xMidYMid meet">

<g transform="translate(0.000000,64.000000) scale(0.100000,-0.100000)"
fill="#c8023f" stroke="none">
<path d="M6 594 c-12 -31 -7 -379 6 -392 8 -8 48 -12 114 -12 102 0 103 0 123
-29 43 -60 147 -87 216 -57 29 12 32 11 79 -31 53 -47 81 -54 91 -22 6 17 -3
32 -39 68 l-47 47 17 39 c31 74 4 168 -61 217 -127 95 -314 -19 -291 -177 l7
-46 -98 3 -98 3 -3 153 -3 152 268 -2 268 -3 6 -50 c4 -34 6 -17 5 50 l-1 100
-195 0 -195 1 179 -3 c115 -2 184 -8 193 -15 8 -6 13 -23 11 -37 l-3 -26 -268
-3 -268 -2 3 37 3 38 65 6 65 6 -71 1 c-57 2 -73 -1 -78 -14z m482 -181 c101
-74 97 -210 -7 -280 -100 -67 -251 13 -251 133 0 75 34 132 95 160 41 20 129
13 163 -13z m96 -305 c20 -23 36 -45 36 -49 0 -16 -20 -20 -26 -5 -3 9 -12 16
-18 16 -7 0 -24 13 -39 28 -21 22 -24 31 -15 40 18 18 23 16 62 -30z"/>
<path d="M322 400 c-65 -40 -91 -125 -57 -189 18 -36 73 -83 87 -75 5 3 -4 14
-21 25 -85 51 -87 170 -4 224 34 23 109 22 142 -2 91 -67 68 -198 -42 -236
-38 -14 -40 -15 -13 -16 66 -2 126 67 126 146 0 108 -126 179 -218 123z"/>
<path d="M293 304 c-4 -11 2 -23 18 -35 l24 -19 -28 0 c-16 0 -26 -4 -22 -10
10 -16 45 -12 52 6 4 11 -2 23 -18 35 l-24 19 23 0 c13 0 20 4 17 10 -10 16
-35 12 -42 -6z"/>
<path d="M367 313 c-4 -3 -7 -24 -7 -45 0 -35 2 -38 28 -38 26 1 26 1 7 16
-17 13 -18 16 -5 24 10 7 11 10 3 10 -7 0 -13 5 -13 10 0 6 7 10 16 10 8 0 12
5 9 10 -7 11 -28 13 -38 3z"/>
<path d="M435 296 c-8 -13 -13 -31 -9 -40 8 -22 50 -31 69 -16 21 18 19 57 -4
70 -29 15 -39 13 -56 -14z m53 -24 c3 -16 -2 -22 -17 -22 -24 0 -35 15 -27 36
9 23 40 13 44 -14z"/>
<path d="M55 560 c-3 -5 1 -10 10 -10 9 0 13 5 10 10 -3 6 -8 10 -10 10 -2 0
-7 -4 -10 -10z"/>
<path d="M105 560 c-3 -5 1 -10 10 -10 9 0 13 5 10 10 -3 6 -8 10 -10 10 -2 0
-7 -4 -10 -10z"/>
<path d="M155 560 c-3 -5 1 -10 10 -10 9 0 13 5 10 10 -3 6 -8 10 -10 10 -2 0
-7 -4 -10 -10z"/>
<path d="M94 480 c-54 -22 -70 -91 -31 -135 48 -57 147 -20 147 55 0 56 -66
101 -116 80z m22 -67 c-14 -14 -23 4 -13 27 l10 25 5 -23 c2 -13 1 -26 -2 -29z
m37 17 c3 -13 0 -20 -9 -20 -8 0 -14 10 -14 26 0 28 15 25 23 -6z m-77 -17
c-11 -11 -19 6 -11 24 8 17 8 17 12 0 3 -10 2 -21 -1 -24z m114 11 c0 -8 -4
-14 -10 -14 -5 0 -10 9 -10 21 0 11 5 17 10 14 6 -3 10 -13 10 -21z m-107 -54
c3 -11 1 -20 -4 -20 -5 0 -9 2 -9 4 0 2 -3 11 -6 20 -3 9 -2 16 4 16 5 0 12
-9 15 -20z m37 -6 c0 -28 -15 -25 -23 6 -3 13 0 20 9 20 8 0 14 -10 14 -26z
m33 6 c-8 -31 -23 -34 -23 -6 0 16 6 26 14 26 9 0 12 -7 9 -20z m37 6 c0 -8
-4 -18 -10 -21 -5 -3 -10 3 -10 14 0 12 5 21 10 21 6 0 10 -6 10 -14z"/>
<path d="M50 270 c0 -6 28 -10 65 -10 37 0 65 4 65 10 0 6 -28 10 -65 10 -37
0 -65 -4 -65 -10z"/>
<path d="M55 230 c3 -5 12 -10 20 -10 8 0 17 5 20 10 4 6 -5 10 -20 10 -15 0
-24 -4 -20 -10z"/>
</g>
</svg>
