<?xml version="1.0" standalone="no"?>
<!DOCTYPE svg PUBLIC "-//W3C//DTD SVG 20010904//EN"
 "http://www.w3.org/TR/2001/REC-SVG-20010904/DTD/svg10.dtd">
<svg version="1.0" xmlns="http://www.w3.org/2000/svg"
 width="64.000000pt" height="64.000000pt" viewBox="0 0 64.000000 64.000000"
 preserveAspectRatio="xMidYMid meet">

<g transform="translate(0.000000,64.000000) scale(0.100000,-0.100000)"
fill="#c8023f" stroke="none">
<path d="M0 320 l0 -320 320 0 320 0 0 320 0 320 -320 0 -320 0 0 -320z m348
-101 c-3 -123 -4 -132 -27 -150 -31 -26 -91 -25 -125 2 -31 25 -33 35 -5 49
15 8 24 8 34 0 8 -6 24 -10 37 -8 22 3 23 6 26 121 l3 117 30 0 31 0 -4 -131z
m186 120 c34 -16 39 -36 14 -54 -20 -13 -24 -13 -38 0 -21 19 -52 9 -48 -14 2
-9 26 -28 53 -43 60 -32 75 -52 75 -95 0 -80 -121 -113 -187 -51 l-24 23 22
18 c19 15 24 16 38 4 24 -21 44 -25 69 -16 34 13 26 36 -20 60 -65 32 -88 57
-88 96 0 66 68 102 134 72z"/>
</g>
</svg>
