<?xml version="1.0" standalone="no"?>
<!DOCTYPE svg PUBLIC "-//W3C//DTD SVG 20010904//EN"
 "http://www.w3.org/TR/2001/REC-SVG-20010904/DTD/svg10.dtd">
<svg version="1.0" xmlns="http://www.w3.org/2000/svg"
 width="64.000000pt" height="64.000000pt" viewBox="0 0 64.000000 64.000000"
 preserveAspectRatio="xMidYMid meet">

<g transform="translate(0.000000,64.000000) scale(0.100000,-0.100000)"
fill="#c8023f" stroke="none">
<path d="M58 624 c-54 -29 -58 -52 -58 -304 0 -254 4 -276 60 -305 43 -22 477
-22 520 0 56 29 60 51 60 305 0 336 16 320 -322 320 -187 -1 -238 -4 -260 -16z
m384 -152 c28 -28 31 -91 5 -120 -18 -19 -17 -21 7 -45 20 -20 26 -36 26 -67
0 -90 -35 -110 -195 -110 l-115 0 0 186 0 186 125 -4 c114 -3 126 -5 147 -26z"/>
<path d="M240 401 l0 -51 68 0 c72 0 92 10 92 45 0 40 -16 49 -89 53 l-71 4 0
-51z"/>
<path d="M240 241 l0 -61 68 0 c81 0 105 14 105 59 0 46 -15 55 -98 59 l-75 4
0 -61z"/>
</g>
</svg>
